<?xml version="1.0" encoding="utf-8"?>
<!-- Generator: Adobe Illustrator 25.0.1, SVG Export Plug-In . SVG Version: 6.00 Build 0)  -->
<svg version="1.1" id="图层_1" xmlns="http://www.w3.org/2000/svg" xmlns:xlink="http://www.w3.org/1999/xlink" x="0px" y="0px"
	 viewBox="0 0 200 200" style="enable-background:new 0 0 200 200;" xml:space="preserve">
<style type="text/css">
	.st0{fill:#68B48B;}
	.st1{clip-path:url(#SVGID_2_);}
</style>
<circle class="st0" cx="100.3" cy="100" r="100"/>
<g>
	<circle class="st0" cx="100.3" cy="100" r="100"/>
	<g>
		<path d="M153.2,131.1H47.4c-1.1,0-2-0.9-2-2V59c0-1.1,0.9-2,2-2h105.8c1.1,0,2,0.9,2,2v70.1C155.2,130.2,154.3,131.1,153.2,131.1z
			"/>
		<rect x="90" y="129.6" width="20.6" height="16.9"/>
		<rect x="73.9" y="145.6" width="52.8" height="7.2"/>
		<rect x="53.6" y="62.9" class="st0" width="91.7" height="56.1"/>
		<circle class="st0" cx="100.3" cy="126.1" r="2.7"/>
		<g>
			<defs>
				<rect id="SVGID_1_" x="27.9" y="47.2" width="144.9" height="64.9"/>
			</defs>
			<clipPath id="SVGID_2_">
				<use xlink:href="#SVGID_1_"  style="overflow:visible;"/>
			</clipPath>
			<path class="st1" d="M126.3,117.8l6.6-0.1l-0.2-11.1l-6.6,0.1c-0.7-3.1-2-6-3.8-8.6l4.6-4.7l-8.1-7.7l-4.6,4.7
				c-2.7-1.6-5.6-2.8-8.8-3.4l-0.1-6.6L94,80.7l0.1,6.6c-3.1,0.7-6.1,2-8.6,3.8l-4.8-4.6l-7.8,8l4.8,4.6c-1.6,2.6-2.8,5.6-3.4,8.7
				l-6.6,0.1l0.2,11.1l6.6-0.1c0.7,3.1,2,6,3.8,8.6l-4.6,4.7l8.1,7.7l4.6-4.7c2.7,1.6,5.6,2.8,8.8,3.4l0.1,6.6l11.2-0.2l-0.1-6.6
				c3.1-0.7,6.1-2,8.6-3.8l4.8,4.6l7.8-8l-4.8-4.6C124.5,123.9,125.6,121,126.3,117.8z M100.6,128c-8.5,0.2-15.4-6.5-15.6-14.9
				c-0.2-8.4,6.5-15.3,15-15.5c8.5-0.2,15.4,6.5,15.6,14.9C115.8,120.9,109.1,127.8,100.6,128z"/>
		</g>
	</g>
</g>
</svg>
