<?xml version="1.0" encoding="utf-8"?>
<!-- Generator: Adobe Illustrator 25.0.1, SVG Export Plug-In . SVG Version: 6.00 Build 0)  -->
<svg version="1.1" id="图层_1" xmlns="http://www.w3.org/2000/svg" xmlns:xlink="http://www.w3.org/1999/xlink" x="0px" y="0px"
	 viewBox="0 0 200 200" style="enable-background:new 0 0 200 200;" xml:space="preserve">
<style type="text/css">
	.st0{fill:#68B48B;}
	.st1{fill:#68B48B;stroke:#000000;stroke-width:4;stroke-miterlimit:10;}
</style>
<circle class="st0" cx="100.3" cy="100" r="100"/>
<g>
	<circle class="st0" cx="100.3" cy="100" r="100"/>
	<g>
		<path class="st1" d="M143.9,145.9H56.7c-3.3,0-6-2.7-6-6V60.1c0-3.3,2.7-6,6-6h87.3c3.3,0,6,2.7,6,6v79.8
			C149.9,143.2,147.2,145.9,143.9,145.9z"/>
		<path class="st1" d="M124.2,126.8H76.4c-2.8,0-5-2.2-5-5V78.3c0-2.8,2.2-5,5-5h47.8c2.8,0,5,2.2,5,5v43.5
			C129.2,124.5,126.9,126.8,124.2,126.8z"/>
		<g>
			<rect x="48.8" y="63.6" transform="matrix(0.7485 0.6632 -0.6632 0.7485 59.4188 -25.1162)" width="28" height="4.3"/>
			<rect x="124.2" y="131.8" transform="matrix(0.7387 0.6741 -0.6741 0.7387 126.3414 -58.0171)" width="27.5" height="4.3"/>
			<rect x="48.9" y="132.1" transform="matrix(0.7638 -0.6454 0.6454 0.7638 -71.8148 72.2104)" width="27.7" height="4.3"/>
			<rect x="123.3" y="63.2" transform="matrix(0.7246 -0.6892 0.6892 0.7246 -7.2636 112.562)" width="27.8" height="4.3"/>
		</g>
	</g>
</g>
</svg>
