<?xml version="1.0" encoding="utf-8"?>
<!-- Generator: Adobe Illustrator 25.0.1, SVG Export Plug-In . SVG Version: 6.00 Build 0)  -->
<svg version="1.1" id="图层_1" xmlns="http://www.w3.org/2000/svg" xmlns:xlink="http://www.w3.org/1999/xlink" x="0px" y="0px"
	 viewBox="0 0 200 200" style="enable-background:new 0 0 200 200;" xml:space="preserve">
<style type="text/css">
	.st0{fill:#68B48B;}
	.st1{fill:none;stroke:#000000;stroke-width:4;stroke-miterlimit:10;}
</style>
<circle class="st0" cx="100.3" cy="100" r="100"/>
<circle class="st0" cx="100.3" cy="100" r="100"/>
<path class="st1" d="M171.2,146.1H29.3c-2.8,0-5-2.2-5-5V59c0-2.8,2.2-5,5-5h141.9c2.8,0,5,2.2,5,5v82.1
	C176.2,143.9,174,146.1,171.2,146.1z"/>
<g>
	<g>
		<rect x="55.8" y="71" width="14.6" height="14.6"/>
		<rect x="77.9" y="71" width="14.6" height="14.6"/>
		<rect x="100.1" y="71" width="14.6" height="14.6"/>
		<rect x="122.2" y="71" width="14.6" height="14.6"/>
		<rect x="144.3" y="71" width="14.6" height="14.6"/>
	</g>
	<rect x="67.8" y="114.4" width="63.7" height="14.6"/>
	<g>
		<rect x="40.4" y="93.5" width="14.6" height="14.6"/>
		<rect x="62.6" y="93.5" width="14.6" height="14.6"/>
		<rect x="84.7" y="93.5" width="14.6" height="14.6"/>
		<rect x="106.9" y="93.5" width="14.6" height="14.6"/>
		<rect x="129" y="93.5" width="14.6" height="14.6"/>
	</g>
</g>
</svg>
