<?xml version="1.0" encoding="utf-8"?>
<!-- Generator: Adobe Illustrator 25.0.1, SVG Export Plug-In . SVG Version: 6.00 Build 0)  -->
<svg version="1.1" id="图层_1" xmlns="http://www.w3.org/2000/svg" xmlns:xlink="http://www.w3.org/1999/xlink" x="0px" y="0px"
	 viewBox="0 0 200 200" style="enable-background:new 0 0 200 200;" xml:space="preserve">
<style type="text/css">
	.st0{fill:#68B48B;}
</style>
<circle class="st0" cx="100.3" cy="100" r="100"/>
<g>
	<circle class="st0" cx="100.3" cy="100" r="100"/>
	<g>
		<path d="M152,103.9h-15.1v7H125v-6.6h-24.7h0H75.5v6.6H63.7v-7H48.6c0,0,0.1,2.5,0,2.5l16.2,40.3h4.8v-10.8h24.6v11.5h6h0h6v-11.5
			H131v10.8h4.8l16.2-40.3C151.9,106.4,152,103.9,152,103.9z"/>
		<path d="M126.8,67.8h-5.6c0.1-0.1-0.1,9.4-0.1,9.4h-20.8h-0.1H79.5c0,0-0.1-9.5-0.1-9.4h-5.6L60.6,94.5v3.8h30.3v-5.9h9.3h0.1h9.3
			v5.9H140v-3.8L126.8,67.8z"/>
		<path d="M111.5,52.7v11.1h-4.2v-11h-7h-0.1h-7v11h-4.2V52.7c0,0-5.6,0-5.7,0v18.9h16.8h0.1h16.8V52.7
			C117.1,52.6,111.5,52.7,111.5,52.7z"/>
	</g>
</g>
</svg>
