<?xml version="1.0" encoding="utf-8"?>
<!-- Generator: Adobe Illustrator 24.2.3, SVG Export Plug-In . SVG Version: 6.00 Build 0)  -->
<svg version="1.1" id="图层_1" xmlns="http://www.w3.org/2000/svg" xmlns:xlink="http://www.w3.org/1999/xlink" x="0px" y="0px"
	 viewBox="0 0 300 50" style="enable-background:new 0 0 300 50;" xml:space="preserve">
<style type="text/css">
	.st0{fill:#040000;}
</style>
<g>
	<path class="st0" d="M39.01,8.55v33.92h-6.37V17.45l-6.27,5.27l-5.2,4.43l-5.2-4.43L9.7,17.45v25.02H3.32V8.55
		c0-2.11,2.47-3.26,4.08-1.9L9.7,8.59l11.47,9.7l11.47-9.7l2.29-1.93C36.54,5.29,39.01,6.44,39.01,8.55z"/>
	<path class="st0" d="M79.47,24.25c0,10.05-7.74,18.22-17.26,18.22S44.95,34.3,44.95,24.25c0-10.05,7.74-18.22,17.26-18.22
		S79.47,14.2,79.47,24.25z M73.31,24.25c0-6.46-4.98-11.71-11.1-11.71c-6.12,0-11.1,5.26-11.1,11.71c0,6.45,4.98,11.71,11.1,11.71
		C68.33,35.96,73.31,30.7,73.31,24.25z"/>
	<path class="st0" d="M116.96,6.03v36.45h-6.21l-18.97-24.4v24.4h-6.4V6.03h6.4l18.77,25.76V6.03H116.96z"/>
	<path class="st0" d="M131.86,12.51c-1.66,0-3.03,1.51-3.03,3.33v0.21c0,1.82,1.37,3.33,3.03,3.33h11.92c3.08,0,5.82,1.46,7.71,3.75
		c0.14,0.16,0.24,0.31,0.38,0.47c1.47,1.98,2.37,4.53,2.37,7.29c0,6.35-4.68,11.5-10.46,11.5h-19.67c0,0,0-2.54,0-6.51h19.67
		c2.51,0,4.59-2.24,4.59-5s-2.08-5-4.59-5h-11.92c-2.41,0-4.59-1.04-6.2-2.76c-0.43-0.47-0.8-0.99-1.14-1.56
		c-0.99-1.56-1.56-3.49-1.56-5.57v-0.21c0-5.41,3.97-9.84,8.9-9.84h21.23c0,0,0,4.07,0,6.56l0,0H131.86z"/>
	<path class="st0" d="M166.1,24.42c0,6.45,4.78,11.71,10.65,11.71h10.65V25.92h-10.65v-6.15h16.56v22.71h-16.56
		c-9.13,0-16.56-8.01-16.56-18.06c0-10.05,7.43-18.39,16.56-18.39h16.56v6.68h-16.56C170.87,12.71,166.1,17.96,166.1,24.42z"/>
	<path class="st0" d="M205.08,15.87v3.73h21.29v6.15h-21.29v6.88c0,0.88,0,3.33,0,3.33h27.2v6.51h-33.07V16.21
		c0-7.72,3.97-10.19,8.9-10.19h24.18v6.51h-24.18C206.45,12.53,205.08,14.04,205.08,15.87z"/>
	<path class="st0" d="M238.19,25.75h20.38V19.6h-20.38V25.75z M238.19,42.48h26.29v-6.47h-26.29V42.48z M238.19,12.58h26.29V6.03
		h-26.29V12.58z"/>
	<g>
		<polygon class="st0" points="270.28,26.02 288.78,6.03 270.28,6.03 		"/>
		<polygon class="st0" points="297.45,6.03 297.45,42.48 283.02,20.68 		"/>
		<polygon class="st0" points="278.62,25.2 290.18,42.48 270.3,42.48 270.3,34.86 		"/>
	</g>
</g>
</svg>
